<!-- This would typically be a PNG file, but I'll create an optimized SVG that works well as a favicon -->
<svg width="32" height="32" viewBox="0 0 32 32" xmlns="http://www.w3.org/2000/svg">
  <!-- Favicon-optimized version with higher contrast -->
  <circle cx="16" cy="16" r="15" fill="white" stroke="black" stroke-width="1"/>
  <path d="M9 9 L16 7 L23 9 L23 14 C23 18 19.5 21 16 23 C12.5 21 9 18 9 14 Z" 
        fill="white" stroke="black" stroke-width="1"/>
  <circle cx="16" cy="11" r="2" fill="black"/>
  <path d="M14 13 L16 19 L18 13 C18 12 17 11 16 11 C15 11 14 12 14 13 Z" fill="black"/>
  <circle cx="12" cy="13" r="1.5" fill="black"/>
  <path d="M10.5 14.5 L12 19 L13.5 14.5 C13.5 13.5 13 12.5 12 12.5 C11 12.5 10.5 13.5 10.5 14.5 Z" fill="black"/>
  <circle cx="20" cy="13" r="1.5" fill="black"/>
  <path d="M18.5 14.5 L20 19 L21.5 14.5 C21.5 13.5 21 12.5 20 12.5 C19 12.5 18.5 13.5 18.5 14.5 Z" fill="black"/>
</svg>